<mxfile host="app.diagrams.net" modified="2023-03-01T11:50:04.262Z" agent="5.0 (Macintosh; Intel Mac OS X 10_15_7) AppleWebKit/537.36 (KHTML, like Gecko) Chrome/109.0.0.0 Safari/537.36" etag="zJ5Tt1bLRXL68KrJ6Cdo" version="20.8.23" type="github">
  <diagram name="Страница 1" id="4Qkz850bjPRODeTR0QSB">
    <mxGraphModel dx="1465" dy="900" grid="1" gridSize="10" guides="1" tooltips="1" connect="1" arrows="1" fold="1" page="1" pageScale="1" pageWidth="827" pageHeight="1169" math="0" shadow="0">
      <root>
        <mxCell id="0" />
        <mxCell id="1" parent="0" />
        <mxCell id="O-kr8Ra3DdRilhxST2_t-5" value="Users" style="swimlane;fontStyle=1;align=center;verticalAlign=top;childLayout=stackLayout;horizontal=1;startSize=26;horizontalStack=0;resizeParent=1;resizeParentMax=0;resizeLast=0;collapsible=1;marginBottom=0;" vertex="1" parent="1">
          <mxGeometry x="470" y="520" width="190" height="200" as="geometry" />
        </mxCell>
        <mxCell id="O-kr8Ra3DdRilhxST2_t-6" value="+ FirstName: string&#xa;+ LastName: string&#xa;+ Email: string&#xa;+ Password: number&#xa;+ ID: number" style="text;strokeColor=none;fillColor=none;align=left;verticalAlign=top;spacingLeft=4;spacingRight=4;overflow=hidden;rotatable=0;points=[[0,0.5],[1,0.5]];portConstraint=eastwest;" vertex="1" parent="O-kr8Ra3DdRilhxST2_t-5">
          <mxGeometry y="26" width="190" height="74" as="geometry" />
        </mxCell>
        <mxCell id="O-kr8Ra3DdRilhxST2_t-7" value="" style="line;strokeWidth=1;fillColor=none;align=left;verticalAlign=middle;spacingTop=-1;spacingLeft=3;spacingRight=3;rotatable=0;labelPosition=right;points=[];portConstraint=eastwest;strokeColor=inherit;" vertex="1" parent="O-kr8Ra3DdRilhxST2_t-5">
          <mxGeometry y="100" width="190" height="8" as="geometry" />
        </mxCell>
        <mxCell id="O-kr8Ra3DdRilhxST2_t-8" value="+ Change_FirstName(): string&#xa;+ Change_LastName(): string&#xa;+ Change_Email(): string&#xa;+ Change_Password(): number&#xa;+ Change_ID(): number&#xa;+ Delete_User(): void" style="text;strokeColor=none;fillColor=none;align=left;verticalAlign=top;spacingLeft=4;spacingRight=4;overflow=hidden;rotatable=0;points=[[0,0.5],[1,0.5]];portConstraint=eastwest;" vertex="1" parent="O-kr8Ra3DdRilhxST2_t-5">
          <mxGeometry y="108" width="190" height="92" as="geometry" />
        </mxCell>
        <mxCell id="O-kr8Ra3DdRilhxST2_t-12" value="Lodges" style="swimlane;fontStyle=1;align=center;verticalAlign=top;childLayout=stackLayout;horizontal=1;startSize=26;horizontalStack=0;resizeParent=1;resizeParentMax=0;resizeLast=0;collapsible=1;marginBottom=0;" vertex="1" parent="1">
          <mxGeometry x="530" y="110" width="150" height="140" as="geometry" />
        </mxCell>
        <mxCell id="O-kr8Ra3DdRilhxST2_t-13" value="+ LodgesType: string&#xa;+ Lodges_ID: number&#xa;+ LodgesPrice: float&#xa;+ LodgesTime: number" style="text;strokeColor=none;fillColor=none;align=left;verticalAlign=top;spacingLeft=4;spacingRight=4;overflow=hidden;rotatable=0;points=[[0,0.5],[1,0.5]];portConstraint=eastwest;" vertex="1" parent="O-kr8Ra3DdRilhxST2_t-12">
          <mxGeometry y="26" width="150" height="64" as="geometry" />
        </mxCell>
        <mxCell id="O-kr8Ra3DdRilhxST2_t-14" value="" style="line;strokeWidth=1;fillColor=none;align=left;verticalAlign=middle;spacingTop=-1;spacingLeft=3;spacingRight=3;rotatable=0;labelPosition=right;points=[];portConstraint=eastwest;strokeColor=inherit;" vertex="1" parent="O-kr8Ra3DdRilhxST2_t-12">
          <mxGeometry y="90" width="150" height="8" as="geometry" />
        </mxCell>
        <mxCell id="O-kr8Ra3DdRilhxST2_t-15" value="+ Change_Type(): string&#xa;+ Change_Time(): number" style="text;strokeColor=none;fillColor=none;align=left;verticalAlign=top;spacingLeft=4;spacingRight=4;overflow=hidden;rotatable=0;points=[[0,0.5],[1,0.5]];portConstraint=eastwest;" vertex="1" parent="O-kr8Ra3DdRilhxST2_t-12">
          <mxGeometry y="98" width="150" height="42" as="geometry" />
        </mxCell>
        <mxCell id="O-kr8Ra3DdRilhxST2_t-16" value="Multiple Parks" style="swimlane;fontStyle=1;align=center;verticalAlign=top;childLayout=stackLayout;horizontal=1;startSize=26;horizontalStack=0;resizeParent=1;resizeParentMax=0;resizeLast=0;collapsible=1;marginBottom=0;" vertex="1" parent="1">
          <mxGeometry x="320" y="20" width="170" height="160" as="geometry" />
        </mxCell>
        <mxCell id="O-kr8Ra3DdRilhxST2_t-17" value="+ Place: string&#xa;+ OpenTime: string&#xa;+ TicketPrice: float&#xa;+ CloseTime: string" style="text;strokeColor=none;fillColor=none;align=left;verticalAlign=top;spacingLeft=4;spacingRight=4;overflow=hidden;rotatable=0;points=[[0,0.5],[1,0.5]];portConstraint=eastwest;" vertex="1" parent="O-kr8Ra3DdRilhxST2_t-16">
          <mxGeometry y="26" width="170" height="64" as="geometry" />
        </mxCell>
        <mxCell id="O-kr8Ra3DdRilhxST2_t-18" value="" style="line;strokeWidth=1;fillColor=none;align=left;verticalAlign=middle;spacingTop=-1;spacingLeft=3;spacingRight=3;rotatable=0;labelPosition=right;points=[];portConstraint=eastwest;strokeColor=inherit;" vertex="1" parent="O-kr8Ra3DdRilhxST2_t-16">
          <mxGeometry y="90" width="170" height="8" as="geometry" />
        </mxCell>
        <mxCell id="O-kr8Ra3DdRilhxST2_t-19" value="+ Change_OpenTime(): string&#xa;+ BuyTicket(): number&#xa;+ Change_CloseTime(): string" style="text;strokeColor=none;fillColor=none;align=left;verticalAlign=top;spacingLeft=4;spacingRight=4;overflow=hidden;rotatable=0;points=[[0,0.5],[1,0.5]];portConstraint=eastwest;" vertex="1" parent="O-kr8Ra3DdRilhxST2_t-16">
          <mxGeometry y="98" width="170" height="62" as="geometry" />
        </mxCell>
        <mxCell id="O-kr8Ra3DdRilhxST2_t-20" value="Rangers per park" style="swimlane;fontStyle=1;align=center;verticalAlign=top;childLayout=stackLayout;horizontal=1;startSize=26;horizontalStack=0;resizeParent=1;resizeParentMax=0;resizeLast=0;collapsible=1;marginBottom=0;" vertex="1" parent="1">
          <mxGeometry x="80" y="105" width="200" height="150" as="geometry" />
        </mxCell>
        <mxCell id="O-kr8Ra3DdRilhxST2_t-21" value="+ Park_ID: number&#xa;+ AttractionLevel: string&#xa;+ AttractionPrice: float&#xa;+ AttractionTime: void" style="text;strokeColor=none;fillColor=none;align=left;verticalAlign=top;spacingLeft=4;spacingRight=4;overflow=hidden;rotatable=0;points=[[0,0.5],[1,0.5]];portConstraint=eastwest;" vertex="1" parent="O-kr8Ra3DdRilhxST2_t-20">
          <mxGeometry y="26" width="200" height="64" as="geometry" />
        </mxCell>
        <mxCell id="O-kr8Ra3DdRilhxST2_t-22" value="" style="line;strokeWidth=1;fillColor=none;align=left;verticalAlign=middle;spacingTop=-1;spacingLeft=3;spacingRight=3;rotatable=0;labelPosition=right;points=[];portConstraint=eastwest;strokeColor=inherit;" vertex="1" parent="O-kr8Ra3DdRilhxST2_t-20">
          <mxGeometry y="90" width="200" height="8" as="geometry" />
        </mxCell>
        <mxCell id="O-kr8Ra3DdRilhxST2_t-23" value="+ Change_AttractionLevel(): string&#xa;+ Change_AttractionPrice(): float&#xa;+ Change_AttractionTime(): void" style="text;strokeColor=none;fillColor=none;align=left;verticalAlign=top;spacingLeft=4;spacingRight=4;overflow=hidden;rotatable=0;points=[[0,0.5],[1,0.5]];portConstraint=eastwest;" vertex="1" parent="O-kr8Ra3DdRilhxST2_t-20">
          <mxGeometry y="98" width="200" height="52" as="geometry" />
        </mxCell>
        <mxCell id="O-kr8Ra3DdRilhxST2_t-24" value="Tickets" style="swimlane;fontStyle=1;align=center;verticalAlign=top;childLayout=stackLayout;horizontal=1;startSize=26;horizontalStack=0;resizeParent=1;resizeParentMax=0;resizeLast=0;collapsible=1;marginBottom=0;" vertex="1" parent="1">
          <mxGeometry x="470" y="300" width="210" height="170" as="geometry" />
        </mxCell>
        <mxCell id="O-kr8Ra3DdRilhxST2_t-25" value="+ ParkTicket: string&#xa;+ TicketPrice: float&#xa;+ Ticket_ID: numberq&#xa;+ TicketPassword: string" style="text;strokeColor=none;fillColor=none;align=left;verticalAlign=top;spacingLeft=4;spacingRight=4;overflow=hidden;rotatable=0;points=[[0,0.5],[1,0.5]];portConstraint=eastwest;" vertex="1" parent="O-kr8Ra3DdRilhxST2_t-24">
          <mxGeometry y="26" width="210" height="64" as="geometry" />
        </mxCell>
        <mxCell id="O-kr8Ra3DdRilhxST2_t-26" value="" style="line;strokeWidth=1;fillColor=none;align=left;verticalAlign=middle;spacingTop=-1;spacingLeft=3;spacingRight=3;rotatable=0;labelPosition=right;points=[];portConstraint=eastwest;strokeColor=inherit;" vertex="1" parent="O-kr8Ra3DdRilhxST2_t-24">
          <mxGeometry y="90" width="210" height="8" as="geometry" />
        </mxCell>
        <mxCell id="O-kr8Ra3DdRilhxST2_t-27" value="+ Change_ParkTicket(): string&#xa;+ Change_TicketPrice(): float&#xa;+ Change_TicketPassword(): string&#xa;+ Remove_Ticket(): void" style="text;strokeColor=none;fillColor=none;align=left;verticalAlign=top;spacingLeft=4;spacingRight=4;overflow=hidden;rotatable=0;points=[[0,0.5],[1,0.5]];portConstraint=eastwest;" vertex="1" parent="O-kr8Ra3DdRilhxST2_t-24">
          <mxGeometry y="98" width="210" height="72" as="geometry" />
        </mxCell>
        <mxCell id="O-kr8Ra3DdRilhxST2_t-28" value="Annual Passes" style="swimlane;fontStyle=1;align=center;verticalAlign=top;childLayout=stackLayout;horizontal=1;startSize=26;horizontalStack=0;resizeParent=1;resizeParentMax=0;resizeLast=0;collapsible=1;marginBottom=0;" vertex="1" parent="1">
          <mxGeometry x="90" y="305" width="240" height="160" as="geometry" />
        </mxCell>
        <mxCell id="O-kr8Ra3DdRilhxST2_t-29" value="+ Park_ID: number&#xa;+ AnnualPassesPrice: float&#xa;+ TicketExpirationDate: number" style="text;strokeColor=none;fillColor=none;align=left;verticalAlign=top;spacingLeft=4;spacingRight=4;overflow=hidden;rotatable=0;points=[[0,0.5],[1,0.5]];portConstraint=eastwest;" vertex="1" parent="O-kr8Ra3DdRilhxST2_t-28">
          <mxGeometry y="26" width="240" height="54" as="geometry" />
        </mxCell>
        <mxCell id="O-kr8Ra3DdRilhxST2_t-30" value="" style="line;strokeWidth=1;fillColor=none;align=left;verticalAlign=middle;spacingTop=-1;spacingLeft=3;spacingRight=3;rotatable=0;labelPosition=right;points=[];portConstraint=eastwest;strokeColor=inherit;" vertex="1" parent="O-kr8Ra3DdRilhxST2_t-28">
          <mxGeometry y="80" width="240" height="8" as="geometry" />
        </mxCell>
        <mxCell id="O-kr8Ra3DdRilhxST2_t-31" value="+ Change_Park_ID(): number&#xa;+ Chane_AnnualPassesPrice(): float&#xa;+ Change_TicketExpirationDate(): number&#xa;+ Remove_Ticket(): void" style="text;strokeColor=none;fillColor=none;align=left;verticalAlign=top;spacingLeft=4;spacingRight=4;overflow=hidden;rotatable=0;points=[[0,0.5],[1,0.5]];portConstraint=eastwest;" vertex="1" parent="O-kr8Ra3DdRilhxST2_t-28">
          <mxGeometry y="88" width="240" height="72" as="geometry" />
        </mxCell>
        <mxCell id="O-kr8Ra3DdRilhxST2_t-32" value="Visitors" style="swimlane;fontStyle=1;align=center;verticalAlign=top;childLayout=stackLayout;horizontal=1;startSize=26;horizontalStack=0;resizeParent=1;resizeParentMax=0;resizeLast=0;collapsible=1;marginBottom=0;" vertex="1" parent="1">
          <mxGeometry x="160" y="545" width="160" height="150" as="geometry" />
        </mxCell>
        <mxCell id="O-kr8Ra3DdRilhxST2_t-33" value="+ Users: string&#xa;+ Email: string&#xa;+ ID: number&#xa;+ Password: string" style="text;strokeColor=none;fillColor=none;align=left;verticalAlign=top;spacingLeft=4;spacingRight=4;overflow=hidden;rotatable=0;points=[[0,0.5],[1,0.5]];portConstraint=eastwest;" vertex="1" parent="O-kr8Ra3DdRilhxST2_t-32">
          <mxGeometry y="26" width="160" height="60" as="geometry" />
        </mxCell>
        <mxCell id="O-kr8Ra3DdRilhxST2_t-34" value="" style="line;strokeWidth=1;fillColor=none;align=left;verticalAlign=middle;spacingTop=-1;spacingLeft=3;spacingRight=3;rotatable=0;labelPosition=right;points=[];portConstraint=eastwest;strokeColor=inherit;" vertex="1" parent="O-kr8Ra3DdRilhxST2_t-32">
          <mxGeometry y="86" width="160" height="8" as="geometry" />
        </mxCell>
        <mxCell id="O-kr8Ra3DdRilhxST2_t-35" value="+ Change_Users(): string&#xa;+ Change_Email(): string&#xa;+ Change_ID(): number" style="text;strokeColor=none;fillColor=none;align=left;verticalAlign=top;spacingLeft=4;spacingRight=4;overflow=hidden;rotatable=0;points=[[0,0.5],[1,0.5]];portConstraint=eastwest;" vertex="1" parent="O-kr8Ra3DdRilhxST2_t-32">
          <mxGeometry y="94" width="160" height="56" as="geometry" />
        </mxCell>
      </root>
    </mxGraphModel>
  </diagram>
</mxfile>
